<?xml version="1.0" encoding="utf-8"?>
<!-- Generator: Adobe Illustrator 25.2.3, SVG Export Plug-In . SVG Version: 6.00 Build 0)  -->
<svg version="1.1" id="Main" xmlns="http://www.w3.org/2000/svg" xmlns:xlink="http://www.w3.org/1999/xlink" x="0px" y="0px"
	 viewBox="0 0 400 400" style="enable-background:new 0 0 400 400;" xml:space="preserve">
<style type="text/css">
	.st0{fill:#FFFFFF;}
</style>
<rect id="Background" x="0" class="st0" width="400" height="400"/>
<g>
	<defs>
		<path id="SVGID_1_" d="M307.2,138.8c0,40.4-33,73.4-73.4,73.4h-48.8v-14.7v-4h48.5c30.2,0,54.7-24.5,54.7-54.7
			c0-30.2-24.5-54.7-54.7-54.7H117.4l18.7-18.7h97.7C274.2,65.4,307.2,98.4,307.2,138.8z M263.7,138.8c0,16.5-13.5,30.1-30.1,30.1
			h-48.5v18.7h48.5c26.9,0,48.7-21.9,48.7-48.7S260.5,90,233.6,90H111.4l-18.7,18.7h140.8C250.1,108.7,263.7,122.2,263.7,138.8z
			 M135.8,182.8v151.8h18.7V140.5l-18.7-20.8V182.8z M160.4,334.6h18.7V182.8V168l-18.7-20.8V334.6z"/>
	</defs>
	<clipPath id="SVGID_2_">
		<use xlink:href="#SVGID_1_"  style="overflow:visible;"/>
	</clipPath>
	<g style="clip-path:url(#SVGID_2_);">
		
			<image style="overflow:visible;" width="1280" height="813" xlink:href="../../../../Downloads/1280px-LGBTQ+_rainbow_flag_Quasar_&apos;Progress&apos;_variant.svg.png"  transform="matrix(1.642253e-17 0.2682 -0.2682 1.642253e-17 309.0284 3.8301)">
		</image>
	</g>
</g>
</svg>
